<svg width="30" height="30" viewBox="0 0 30 30" fill="none" xmlns="http://www.w3.org/2000/svg">
<path d="M24.6875 0H5.3125C2.37849 0 0 2.43947 0 5.44872V24.5513C0 27.5605 2.37849 30 5.3125 30H24.6875C27.6215 30 30 27.5605 30 24.5513V5.44872C30 2.43947 27.6215 0 24.6875 0Z" fill="#001E36"/>
<path d="M6.755 21.0371V7.8474C6.755 7.75253 6.79625 7.70381 6.88 7.70381C7.09375 7.70381 7.29 7.70381 7.585 7.69355C7.88 7.6833 8.19875 7.67945 8.54125 7.67304L9.6275 7.65253C10.01 7.64483 10.39 7.64227 10.765 7.64099C11.785 7.64099 12.6438 7.77176 13.3413 8.0333C13.9704 8.25213 14.5442 8.61165 15.0213 9.08586C15.4261 9.49741 15.7387 9.99438 15.9375 10.5423C16.1262 11.0765 16.2214 11.6407 16.2187 12.2089C16.2187 13.3089 15.9687 14.2171 15.4687 14.9333C14.9696 15.6512 14.2682 16.1952 13.4588 16.4923C12.6125 16.8166 11.6737 16.9256 10.6412 16.9256C10.345 16.9256 10.1412 16.9256 10.0162 16.9153C9.89125 16.9051 9.715 16.9051 9.47375 16.9051V21.023C9.47675 21.0444 9.4756 21.0662 9.47037 21.0871C9.46514 21.1081 9.45593 21.1277 9.44327 21.145C9.43061 21.1623 9.41476 21.1768 9.39661 21.1878C9.37845 21.1988 9.35837 21.2059 9.3375 21.2089C9.3226 21.2115 9.3074 21.2115 9.2925 21.2089H6.89626C6.80251 21.2025 6.755 21.1474 6.755 21.0371ZM9.47375 10.1807V14.482C9.6475 14.4961 9.80875 14.5025 9.95625 14.5025H10.62C11.1089 14.5011 11.5947 14.4219 12.06 14.2679C12.4587 14.146 12.8148 13.9093 13.0862 13.5859C13.3471 13.2705 13.4779 12.8303 13.4787 12.2654C13.489 11.8658 13.3875 11.4717 13.1862 11.1294C12.9749 10.799 12.6693 10.5434 12.3112 10.3974C11.8432 10.2108 11.3431 10.1236 10.8413 10.141C10.52 10.141 10.235 10.141 9.98625 10.1512C9.81502 10.1526 9.64397 10.1629 9.47375 10.182V10.1807Z" fill="#31A8FF"/>
<path d="M23.9962 13.7C23.6179 13.501 23.2151 13.3552 22.7987 13.2667C22.3398 13.1591 21.8707 13.1036 21.4 13.1013C21.1469 13.0949 20.8942 13.1264 20.65 13.1949C20.4936 13.2298 20.3545 13.3207 20.2575 13.4513C20.1911 13.5558 20.1559 13.6779 20.1562 13.8026C20.161 13.9236 20.205 14.0395 20.2812 14.1321C20.3986 14.2733 20.5422 14.3893 20.7037 14.4731C20.9906 14.6314 21.2861 14.7727 21.5887 14.8962C22.2642 15.1281 22.9098 15.4432 23.5112 15.8346C23.9205 16.1005 24.2593 16.466 24.4975 16.8987C24.6977 17.3081 24.7976 17.7613 24.7887 18.2192C24.8011 18.824 24.6327 19.4181 24.3062 19.9218C23.9564 20.4332 23.471 20.8309 22.9075 21.068C22.2958 21.3423 21.5412 21.4799 20.6437 21.4808C20.0726 21.4861 19.5025 21.4306 18.9425 21.3154C18.5017 21.2323 18.0726 21.0936 17.665 20.9026C17.6209 20.8794 17.5842 20.8438 17.5592 20.8C17.5342 20.7561 17.5219 20.7059 17.5237 20.6551V18.4269C17.5219 18.4051 17.5255 18.3832 17.5342 18.3632C17.543 18.3432 17.5566 18.3259 17.5737 18.3128C17.5912 18.303 17.6112 18.2988 17.6311 18.3009C17.651 18.303 17.6698 18.3111 17.685 18.3244C18.1667 18.6153 18.6896 18.8276 19.235 18.9539C19.7156 19.0768 20.2084 19.1426 20.7037 19.15C21.1725 19.15 21.5187 19.0872 21.74 18.9641C21.8401 18.9171 21.9247 18.8413 21.9837 18.746C22.0427 18.6507 22.0736 18.5398 22.0725 18.4269C22.0725 18.2492 21.9716 18.0782 21.77 17.9141C21.5683 17.75 21.1591 17.5504 20.5425 17.3154C19.9104 17.0898 19.3112 16.7771 18.7612 16.3859C18.3677 16.1055 18.0436 15.7345 17.815 15.3026C17.6175 14.8959 17.5176 14.4466 17.5237 13.9923C17.5225 13.446 17.6688 12.91 17.9462 12.4436C18.263 11.9303 18.7174 11.5217 19.255 11.2667C19.845 10.9641 20.5829 10.8128 21.4687 10.8128C21.9871 10.8085 22.505 10.8466 23.0175 10.9269C23.3888 10.9747 23.7519 11.0752 24.0962 11.2257C24.1243 11.2333 24.1503 11.2476 24.172 11.2674C24.1937 11.2872 24.2106 11.312 24.2212 11.3398C24.2329 11.3897 24.2379 11.441 24.2362 11.4923V13.5782C24.2385 13.6032 24.2341 13.6282 24.2235 13.6508C24.2129 13.6734 24.1966 13.6926 24.1762 13.7064C24.148 13.7204 24.1168 13.7271 24.0855 13.726C24.0541 13.7249 24.0235 13.7159 23.9962 13.7V13.7Z" fill="#31A8FF"/>
</svg>
