<svg width="30" height="30" viewBox="0 0 30 30" fill="none" xmlns="http://www.w3.org/2000/svg">
<path d="M24.6875 0H5.3125C2.37849 0 0 2.43947 0 5.44872V24.5513C0 27.5605 2.37849 30 5.3125 30H24.6875C27.6215 30 30 27.5605 30 24.5513V5.44872C30 2.43947 27.6215 0 24.6875 0Z" fill="#470137"/>
<path d="M15.7713 7.89233L12.0275 14.2257L16.0275 20.9552C16.0533 21.0019 16.0605 21.057 16.0475 21.109C16.0338 21.1577 15.9875 21.1269 15.9063 21.141H13.0538C12.8525 21.141 12.7113 21.1334 12.6313 20.9962C12.3629 20.4586 12.0946 19.9252 11.8263 19.3962C11.5579 18.8671 11.2729 18.3269 10.9713 17.7757C10.6688 17.2252 10.37 16.6697 10.075 16.109H10.055C9.78667 16.6594 9.50833 17.2098 9.22 17.7603C8.93167 18.3107 8.64667 18.8577 8.365 19.4013C8.08417 19.9449 7.79583 20.4851 7.5 21.0218C7.44625 21.15 7.35125 21.1577 7.2175 21.1577H4.4675C4.41375 21.1577 4.38375 21.1795 4.37625 21.1244C4.36898 21.0744 4.37964 21.0234 4.40625 20.9808L8.29 14.4423L4.5 7.86797C4.46 7.81285 4.4525 7.76797 4.48 7.73977C4.49544 7.72174 4.5148 7.70771 4.53652 7.6988C4.55824 7.68989 4.5817 7.68635 4.605 7.68848H7.4425C7.50438 7.68511 7.56623 7.69561 7.62375 7.71926C7.67366 7.74658 7.71651 7.78568 7.74875 7.83336C7.98958 8.38293 8.25792 8.93336 8.55375 9.48464C8.84958 10.0359 9.14792 10.5795 9.44875 11.1154C9.75125 11.6513 10.0296 12.1949 10.2838 12.7462H10.305C10.5725 12.1821 10.8442 11.6316 11.12 11.0949C11.3958 10.5581 11.6775 10.018 11.965 9.47439C12.2525 8.9308 12.5308 8.39063 12.8 7.85387C12.8159 7.80501 12.8434 7.76096 12.88 7.72567C12.9299 7.70025 12.9858 7.6896 13.0413 7.6949H15.6775C15.6923 7.69108 15.7076 7.69031 15.7227 7.69264C15.7378 7.69497 15.7523 7.70034 15.7653 7.70845C15.7783 7.71656 15.7896 7.72725 15.7986 7.73989C15.8076 7.75253 15.814 7.76687 15.8175 7.78208C15.8224 7.80369 15.8213 7.82625 15.8145 7.84728C15.8076 7.86832 15.7953 7.88701 15.7788 7.90131L15.7713 7.89233Z" fill="#FF61F6"/>
<path d="M21.5463 21.409C20.6201 21.4231 19.7025 21.2256 18.86 20.8308C18.0773 20.4571 17.4235 19.8487 16.985 19.0859C16.5275 18.309 16.2992 17.3355 16.3 16.1654C16.2924 15.218 16.5287 14.2853 16.985 13.4616C17.4528 12.6241 18.1406 11.9382 18.97 11.4821C19.8425 10.9855 20.8958 10.7376 22.13 10.7385C22.1975 10.7385 22.2838 10.7385 22.3913 10.7487L22.7738 10.7795V6.71283C22.7738 6.61668 22.815 6.56796 22.8988 6.56796H25.4338C25.4479 6.5654 25.4624 6.56578 25.4764 6.56906C25.4904 6.57234 25.5036 6.57847 25.5153 6.58707C25.5269 6.59567 25.5368 6.60658 25.5442 6.61915C25.5517 6.63173 25.5566 6.64571 25.5588 6.66027C25.56 6.67049 25.56 6.68082 25.5588 6.69104V18.891C25.5588 19.1244 25.5688 19.3795 25.5888 19.6603C25.6088 19.941 25.6263 20.1834 25.64 20.4039C25.6418 20.4472 25.6309 20.49 25.6086 20.5269C25.5863 20.5637 25.5537 20.5928 25.515 20.6103C24.8594 20.8887 24.1768 21.095 23.4788 21.2257C22.8411 21.345 22.1944 21.4064 21.5463 21.409V21.409ZM22.7738 18.8449V13.2039C22.6654 13.1732 22.5545 13.1526 22.4425 13.1423C22.3055 13.1278 22.1678 13.121 22.03 13.1218C21.5422 13.1204 21.0609 13.2368 20.625 13.4616C20.1982 13.6789 19.8338 14.0063 19.5675 14.4115C19.2925 14.8244 19.155 15.368 19.155 16.0423C19.1454 16.4921 19.217 16.9398 19.3663 17.3628C19.4882 17.7039 19.6805 18.014 19.93 18.2718C20.1695 18.5071 20.4587 18.6826 20.775 18.7846C21.1097 18.8958 21.4595 18.9516 21.8113 18.95C22 18.95 22.1738 18.9423 22.335 18.9295C22.4836 18.9184 22.6307 18.8914 22.7738 18.8487V18.8449Z" fill="#FF61F6"/>
</svg>
