<svg width="30" height="30" viewBox="0 0 30 30" fill="none" xmlns="http://www.w3.org/2000/svg">
<path d="M5.3125 2.418e-06H24.6875C25.3853 -0.000672159 26.0764 0.139806 26.7213 0.41339C27.3661 0.686975 27.952 1.08829 28.4455 1.59439C28.9389 2.10048 29.3302 2.70142 29.597 3.36279C29.8637 4.02416 30.0007 4.73299 30 5.44872V24.5513C30.0007 25.267 29.8637 25.9758 29.597 26.6372C29.3302 27.2986 28.9389 27.8995 28.4455 28.4056C27.952 28.9117 27.3661 29.313 26.7213 29.5866C26.0764 29.8602 25.3853 30.0007 24.6875 30H5.3125C4.61467 30.0007 3.92356 29.8602 3.27872 29.5866C2.63388 29.313 2.04797 28.9117 1.55453 28.4056C1.06109 27.8995 0.669801 27.2986 0.403056 26.6372C0.13631 25.9758 -0.000655355 25.267 2.35755e-06 24.5513V5.44872C-0.000655355 4.73299 0.13631 4.02416 0.403056 3.36279C0.669801 2.70142 1.06109 2.10048 1.55453 1.59439C2.04797 1.08829 2.63388 0.686975 3.27872 0.41339C3.92356 0.139806 4.61467 -0.000672159 5.3125 2.418e-06Z" fill="#00005B"/>
<path d="M7.1275 21.0384V7.84612C7.1275 7.75638 7.165 7.7051 7.2525 7.7051C7.465 7.7051 7.665 7.7051 7.9525 7.69228C8.24 7.67946 8.565 7.67945 8.9025 7.66663C9.24 7.65381 9.6025 7.65382 9.99 7.641C10.3775 7.62818 10.7525 7.62817 11.1275 7.62817C12.1525 7.62817 13.0025 7.75638 13.7025 8.02561C14.33 8.24417 14.9022 8.60328 15.3775 9.07689C15.7803 9.49135 16.0915 9.9898 16.29 10.5384C16.4792 11.0727 16.5765 11.6367 16.5775 12.2051C16.5775 13.3077 16.3275 14.2179 15.8275 14.9359C15.3252 15.6528 14.6239 16.1979 13.815 16.5C12.965 16.8205 12.0275 16.9359 11.0025 16.9359C10.7025 16.9359 10.5025 16.9359 10.3775 16.923C10.2525 16.9102 10.0775 16.9102 9.84 16.9102V21.0256C9.84279 21.0467 9.84142 21.0682 9.83597 21.0887C9.83053 21.1092 9.82111 21.1285 9.80829 21.1452C9.79546 21.1619 9.77949 21.1759 9.76132 21.1862C9.74315 21.1964 9.72314 21.2029 9.7025 21.2051H7.2775C7.175 21.2051 7.1275 21.1538 7.1275 21.0384ZM9.8525 10.1795V14.4871C10.0275 14.5 10.19 14.5128 10.34 14.5128H11.0025C11.4905 14.5134 11.9755 14.4355 12.44 14.282C12.8385 14.1618 13.1945 13.9258 13.465 13.6025C13.7275 13.282 13.8525 12.8461 13.8525 12.282C13.8643 11.8814 13.7645 11.4856 13.565 11.141C13.3566 10.8081 13.05 10.5521 12.69 10.4102C12.2207 10.2217 11.7186 10.1344 11.215 10.1538C10.89 10.1538 10.6025 10.1538 10.365 10.1666C10.1941 10.1552 10.0226 10.1595 9.8525 10.1795V10.1795Z" fill="#9999FF"/>
<path d="M18.325 10.9231H20.5125C20.5717 10.9246 20.629 10.9452 20.6762 10.9821C20.7233 11.0189 20.7579 11.0701 20.775 11.1283C20.8131 11.2314 20.8383 11.3391 20.85 11.4488C20.875 11.577 20.9 11.718 20.9125 11.8462C20.925 11.9744 20.9375 12.1411 20.9375 12.3077C21.3128 11.8583 21.7664 11.4845 22.275 11.2052C22.856 10.8741 23.5103 10.702 24.175 10.7052C24.1956 10.7023 24.2165 10.7037 24.2365 10.7093C24.2565 10.7149 24.2753 10.7246 24.2916 10.7377C24.3079 10.7509 24.3215 10.7672 24.3315 10.7859C24.3416 10.8045 24.3478 10.825 24.35 10.8462V13.3975C24.35 13.5001 24.2875 13.5385 24.15 13.5385C23.6965 13.5233 23.243 13.5664 22.8 13.6667C22.4389 13.7432 22.0869 13.8592 21.75 14.0129C21.5082 14.1247 21.2912 14.2861 21.1125 14.4872V21.0257C21.1125 21.1539 21.0625 21.2052 20.95 21.2052H18.4875C18.4644 21.2092 18.4408 21.2083 18.4181 21.2026C18.3954 21.197 18.374 21.1866 18.3553 21.1723C18.3366 21.1579 18.321 21.1397 18.3093 21.1189C18.2976 21.0982 18.2902 21.0752 18.2875 21.0513V13.8975C18.2875 13.5898 18.2875 13.2693 18.275 12.936C18.2625 12.6026 18.2625 12.2693 18.25 11.936C18.25 11.6411 18.225 11.359 18.2 11.0642C18.1967 11.049 18.1963 11.0333 18.1989 11.018C18.2015 11.0027 18.207 10.9881 18.2152 10.975C18.2233 10.9619 18.2339 10.9506 18.2463 10.9417C18.2587 10.9328 18.2727 10.9265 18.2875 10.9231C18.2875 10.9103 18.3125 10.9103 18.325 10.9231V10.9231Z" fill="#9999FF"/>
</svg>
