<svg width="30" height="30" viewBox="0 0 30 30" fill="none" xmlns="http://www.w3.org/2000/svg">
<path d="M24.6875 0H5.3125C2.37849 0 0 2.43947 0 5.44872V24.5513C0 27.5605 2.37849 30 5.3125 30H24.6875C27.6215 30 30 27.5605 30 24.5513V5.44872C30 2.43947 27.6215 0 24.6875 0Z" fill="#37244B"/>
<path d="M12.0525 17.9487H7.4025L6.4575 20.9679C6.44451 21.0228 6.41336 21.0713 6.36936 21.1052C6.32535 21.1391 6.27123 21.1563 6.21625 21.1538H3.86125C3.72625 21.1538 3.68 21.0782 3.72 20.9269L7.745 9.08585C7.785 8.95764 7.82625 8.84098 7.87 8.68328C7.92284 8.40794 7.94963 8.12801 7.95 7.84739C7.94536 7.81373 7.95395 7.77955 7.97388 7.75239C7.9938 7.72522 8.02343 7.70728 8.05625 7.70251H11.2912C11.3854 7.70251 11.4392 7.73713 11.4525 7.80636L16.02 20.9474C16.06 21.0846 16.02 21.1538 15.895 21.1538H13.28C13.235 21.1591 13.1896 21.1473 13.1525 21.1206C13.1154 21.0939 13.0892 21.0542 13.0787 21.0089L12.0525 17.9487ZM8.1275 15.4025H11.3075C11.2275 15.1269 11.1325 14.8179 11.025 14.4743C10.9175 14.1307 10.8037 13.7615 10.6837 13.3692C10.5637 12.9769 10.4425 12.5846 10.3212 12.1923C10.2 11.8 10.09 11.423 9.98875 11.0576C9.8875 10.6923 9.7975 10.3589 9.7175 10.0564H9.6975C9.58382 10.6146 9.44281 11.1665 9.275 11.7102C9.08666 12.329 8.89541 12.9619 8.70125 13.6089C8.50708 14.2559 8.31583 14.8538 8.1275 15.4025Z" fill="#D8A1FF"/>
<path d="M23.4225 16.7731H19.4588C19.5069 17.1753 19.6367 17.5628 19.84 17.9103C20.0659 18.2527 20.3844 18.52 20.7563 18.6795C21.2608 18.9035 21.8066 19.0132 22.3563 19.0013C22.7921 18.9924 23.2264 18.9435 23.6538 18.8552C24.0362 18.8021 24.411 18.7018 24.77 18.5564C24.8375 18.5009 24.8713 18.5355 24.8713 18.6603V20.6205C24.8739 20.674 24.8636 20.7273 24.8413 20.7757C24.8177 20.8128 24.7866 20.8443 24.75 20.868C24.3511 21.0504 23.931 21.1797 23.5 21.2526C22.9187 21.3656 22.3278 21.418 21.7363 21.409C20.7838 21.409 19.9854 21.2577 19.3413 20.9552C18.7327 20.6798 18.1952 20.2628 17.7713 19.7372C17.3758 19.2417 17.0816 18.6697 16.9063 18.0552C16.7321 17.4486 16.6441 16.8195 16.645 16.1872C16.6424 15.4967 16.7475 14.8103 16.9563 14.1539C17.1576 13.5135 17.4753 12.918 17.8925 12.3987C18.3043 11.8866 18.8189 11.4716 19.4013 11.1821C19.9913 10.8859 20.69 10.7795 21.495 10.7795C22.1623 10.7625 22.8251 10.8965 23.4363 11.1718C23.9512 11.3977 24.404 11.7499 24.755 12.1975C25.0864 12.634 25.3403 13.127 25.505 13.6539C25.6592 14.1597 25.7372 14.6867 25.7363 15.2167C25.7363 15.5193 25.7263 15.7945 25.7063 16.0423C25.685 16.2898 25.6688 16.4693 25.655 16.5795C25.6498 16.6251 25.6285 16.6671 25.5951 16.6976C25.5616 16.7281 25.5185 16.7449 25.4738 16.7449C25.3904 16.7449 25.2529 16.7552 25.0613 16.7757C24.8675 16.7962 24.625 16.8103 24.3375 16.8167C24.05 16.8231 23.745 16.7731 23.4225 16.7731ZM19.4588 14.8923H22.095C22.4163 14.8923 22.655 14.8923 22.8088 14.8821C22.9122 14.8719 23.0121 14.8382 23.1013 14.7834V14.6552C23.0967 14.4938 23.0693 14.334 23.02 14.1808C22.9116 13.8296 22.694 13.5244 22.4006 13.3119C22.1072 13.0993 21.754 12.9912 21.395 13.0039C21.0562 12.9838 20.719 13.0652 20.4245 13.2382C20.13 13.4112 19.8908 13.6683 19.7363 13.9782C19.5964 14.2656 19.5027 14.5743 19.4588 14.8923V14.8923Z" fill="#D8A1FF"/>
</svg>
