<svg width="40" height="40" viewBox="0 0 40 40" fill="none" xmlns="http://www.w3.org/2000/svg">
<path d="M36.9846 1.53845H3.01538C2.19845 1.53845 1.53845 2.19845 1.53845 3.01538V36.9846C1.53845 37.8015 2.19845 38.4615 3.01538 38.4615H36.9846C37.8015 38.4615 38.4615 37.8015 38.4615 36.9846V3.01538C38.4615 2.19845 37.8015 1.53845 36.9846 1.53845ZM23.9923 12.5646H30.38V14.12H23.9923V12.5646ZM20 25.3908C19.7012 25.9579 19.2746 26.4477 18.7538 26.8215C18.2092 27.2 17.6046 27.4769 16.9631 27.6385C16.2919 27.8183 15.5995 27.9068 14.9046 27.9015H7.26153V12.1585H14.6923C15.4446 12.1585 16.1277 12.2277 16.7508 12.3569C17.3692 12.4861 17.8954 12.7077 18.3385 13.0077C18.7769 13.3077 19.1231 13.7092 19.3677 14.2077C19.6077 14.7015 19.7323 15.32 19.7323 16.0538C19.7323 16.8477 19.5523 17.5031 19.1923 18.0338C18.8277 18.5646 18.3015 18.9938 17.5861 19.3308C18.56 19.6077 19.2754 20.1015 19.7461 20.7938C20.2261 21.4954 20.4615 22.3354 20.4615 23.3231C20.4615 24.1261 20.3092 24.8138 20 25.3908ZM32.8677 22.9538H24.6338C24.6338 23.8492 24.9431 24.7077 25.4092 25.1692C25.88 25.6261 26.5538 25.8569 27.4354 25.8569C28.0723 25.8569 28.6123 25.6954 29.0738 25.3769C29.5308 25.0585 29.8077 24.7215 29.9092 24.3708H32.6692C32.2261 25.7415 31.5523 26.72 30.6385 27.3108C29.7338 27.9015 28.6261 28.1969 27.3385 28.1969C26.4385 28.1969 25.6308 28.0492 24.9061 27.7677C24.2092 27.4954 23.5815 27.08 23.0646 26.5446C22.5549 25.9948 22.161 25.3481 21.9061 24.6431C21.6246 23.8631 21.4861 23.0415 21.4954 22.2154C21.4954 21.3615 21.6385 20.5677 21.9154 19.8292C22.4461 18.3938 23.5492 17.2446 24.9569 16.6492C25.7092 16.3354 26.5169 16.1785 27.3338 16.1877C28.3031 16.1877 29.1431 16.3723 29.8723 16.7508C30.5743 17.1122 31.1839 17.6301 31.6538 18.2646C32.12 18.8969 32.4477 19.6169 32.6554 20.4292C32.8538 21.2277 32.9231 22.0677 32.8677 22.9538ZM27.2369 18.5415C26.7385 18.5415 26.3185 18.6292 25.9954 18.8C25.6723 18.9708 25.4046 19.1831 25.2015 19.4277C25.0081 19.6639 24.8652 19.9372 24.7815 20.2308C24.7077 20.4754 24.6569 20.7246 24.6385 20.9785H29.7385C29.6646 20.18 29.3877 19.5892 29.0185 19.1738C28.6308 18.7631 28.0077 18.5415 27.2369 18.5415ZM15.7677 18.0754C16.1692 17.7846 16.3631 17.3046 16.3631 16.6446C16.3769 16.3308 16.3123 16.0215 16.1738 15.74C16.0492 15.5138 15.8646 15.3246 15.6385 15.1908C15.404 15.0486 15.1435 14.9544 14.8723 14.9138C14.5769 14.8585 14.2769 14.8308 13.9815 14.8354H10.7369V18.5138H14.2492C14.8538 18.5185 15.3661 18.3708 15.7677 18.0754ZM16.3123 21.3985C15.86 21.0523 15.2554 20.8815 14.5031 20.8815H10.7277V25.22H14.4292C14.7754 25.22 15.0938 25.1877 15.4031 25.1231C15.7123 25.0585 15.9892 24.9477 16.2246 24.7908C16.46 24.6385 16.6492 24.4308 16.7923 24.1631C16.9308 23.8954 17 23.5538 17 23.1431C17 22.3261 16.7692 21.7492 16.3123 21.3985Z" fill="#1769FF"/>
</svg>
