<svg width="40" height="40" viewBox="0 0 40 40" fill="none" xmlns="http://www.w3.org/2000/svg">
<path d="M39.405 8.2283C38.0133 8.84496 36.5183 9.26163 34.9466 9.44997C36.5683 8.47962 37.7816 6.95241 38.36 5.1533C36.8364 6.05828 35.1689 6.69529 33.43 7.03663C32.2606 5.78807 30.7118 4.96051 29.0239 4.68242C27.336 4.40434 25.6035 4.69128 24.0954 5.49872C22.5873 6.30616 21.3879 7.5889 20.6836 9.14781C19.9792 10.7067 19.8092 12.4545 20.2 14.12C17.1128 13.965 14.0927 13.1625 11.3357 11.7648C8.57868 10.3671 6.14638 8.40523 4.19665 6.00663C3.52998 7.15663 3.14665 8.48997 3.14665 9.90997C3.1459 11.1883 3.4607 12.447 4.06311 13.5745C4.66552 14.702 5.53691 15.6634 6.59998 16.3733C5.36711 16.3341 4.16143 16.0009 3.08331 15.4016V15.5016C3.08319 17.2945 3.70337 19.0323 4.83862 20.42C5.97387 21.8077 7.55427 22.7598 9.31165 23.115C8.16795 23.4245 6.96887 23.4701 5.80498 23.2483C6.30081 24.791 7.26664 26.14 8.56726 27.1065C9.86788 28.073 11.4382 28.6086 13.0583 28.6383C10.308 30.7973 6.91146 31.9684 3.41498 31.9633C2.79561 31.9635 2.17677 31.9273 1.56165 31.855C5.11077 34.1369 9.24221 35.348 13.4616 35.3433C27.745 35.3433 35.5533 23.5133 35.5533 13.2533C35.5533 12.92 35.545 12.5833 35.53 12.25C37.0488 11.1516 38.3598 9.79146 39.4016 8.2333L39.405 8.2283Z" fill="#1CA1F1"/>
</svg>
