<svg width="179" height="45" viewBox="0 0 179 45" fill="none" xmlns="http://www.w3.org/2000/svg">
    <path d="M0 7.875a7 7 0 0 1 7-7h165a7 7 0 0 1 7 7v30a7 7 0 0 1-7 7H7a7 7 0 0 1-7-7v-30z" fill="#0F3662"/>
    <g clip-path="url(#d3gsuqrema)">
        <g filter="url(#qed5pdgscb)">
            <path d="m32 26.875 4-5h-3v-7h-2v7h-3l4 5z" fill="#fff"/>
        </g>
        <g filter="url(#cfjcq70g2c)">
            <path d="M40 28.875H24v-7h-2v7c0 1.103.897 2 2 2h16c1.103 0 2-.897 2-2v-7h-2v7z" fill="#fff"/>
        </g>
    </g>
    <g filter="url(#66o0mvb4zd)">
        <path d="M60.084 28.875h-3.767V17.239h3.887c1.14 0 2.12.233 2.937.698a4.606 4.606 0 0 1 1.881 1.995c.44.864.66 1.9.66 3.108 0 1.212-.222 2.254-.666 3.125a4.665 4.665 0 0 1-1.909 2.011c-.833.466-1.84.699-3.023.699zm-2.01-1.534h1.914c.886 0 1.623-.167 2.21-.5a3.15 3.15 0 0 0 1.318-1.46c.292-.64.438-1.42.438-2.341 0-.913-.146-1.688-.438-2.324-.288-.637-.718-1.12-1.29-1.449-.571-.33-1.282-.494-2.13-.494h-2.023v8.568zm13.33 1.71c-.818 0-1.532-.187-2.142-.562a3.793 3.793 0 0 1-1.42-1.574c-.338-.674-.506-1.462-.506-2.364 0-.905.168-1.697.506-2.375a3.785 3.785 0 0 1 1.42-1.58c.61-.374 1.324-.562 2.142-.562.818 0 1.532.188 2.142.563.61.375 1.083.901 1.42 1.58.338.677.506 1.469.506 2.374 0 .902-.168 1.69-.505 2.364a3.793 3.793 0 0 1-1.42 1.574c-.61.375-1.325.562-2.143.562zm.006-1.426c.53 0 .97-.14 1.318-.42.349-.28.606-.654.773-1.12.17-.466.255-.979.255-1.54 0-.556-.085-1.068-.255-1.534a2.5 2.5 0 0 0-.773-1.13c-.349-.284-.788-.427-1.318-.427-.534 0-.977.143-1.33.427a2.54 2.54 0 0 0-.778 1.13c-.167.466-.25.978-.25 1.535 0 .56.083 1.073.25 1.54.17.465.43.838.778 1.119.353.28.796.42 1.33.42zm7.585 1.25-2.568-8.727h1.755l1.71 6.409h.086l1.716-6.41h1.756l1.704 6.381h.085l1.7-6.38h1.755l-2.563 8.727h-1.733l-1.772-6.301h-.131l-1.773 6.301h-1.727zm13.01-5.182v5.182h-1.699v-8.727h1.63v1.42h.109c.2-.462.515-.833.943-1.114.432-.28.975-.42 1.63-.42.595 0 1.116.125 1.563.375.447.246.794.614 1.04 1.102.246.489.37 1.093.37 1.813v5.551h-1.7v-5.347c0-.632-.164-1.127-.494-1.482-.33-.36-.782-.54-1.358-.54-.394 0-.744.085-1.051.255-.303.17-.544.42-.722.75-.174.326-.261.72-.261 1.182zm7.864-6.454h1.698v9.25c0 .375.048.64.143.795.098.155.284.23.556.222.148-.004.258-.014.33-.029.076-.015.144-.032.204-.05l.307 1.357a4.005 4.005 0 0 1-.449.097c-.178.034-.38.053-.608.056-.734.012-1.282-.162-1.642-.522-.359-.36-.54-.885-.54-1.574v-9.602zm8.035 11.812c-.818 0-1.532-.187-2.142-.562a3.79 3.79 0 0 1-1.42-1.574c-.338-.674-.506-1.462-.506-2.364 0-.905.168-1.697.506-2.375a3.783 3.783 0 0 1 1.42-1.58c.61-.374 1.324-.562 2.142-.562.818 0 1.532.188 2.142.563.61.375 1.083.901 1.421 1.58.337.677.505 1.469.505 2.374 0 .902-.168 1.69-.505 2.364a3.8 3.8 0 0 1-1.421 1.574c-.61.375-1.324.562-2.142.562zm.006-1.426c.53 0 .969-.14 1.318-.42a2.47 2.47 0 0 0 .773-1.12c.17-.466.255-.979.255-1.54 0-.556-.085-1.068-.255-1.534a2.506 2.506 0 0 0-.773-1.13c-.349-.284-.788-.427-1.318-.427-.534 0-.977.143-1.33.427a2.539 2.539 0 0 0-.778 1.13c-.167.466-.25.978-.25 1.535 0 .56.083 1.073.25 1.54.17.465.43.838.778 1.119.353.28.796.42 1.33.42zm9.226 1.42c-.705 0-1.334-.18-1.887-.54-.549-.363-.981-.88-1.295-1.55-.311-.675-.466-1.483-.466-2.427 0-.943.157-1.75.472-2.42.318-.67.753-1.184 1.306-1.54a3.399 3.399 0 0 1 1.881-.534c.542 0 .977.091 1.307.273.333.178.591.386.773.625.185.239.329.449.431.63h.103v-1.414h1.699v8.727h-1.66v-1.358h-.142c-.102.186-.25.398-.443.636a2.462 2.462 0 0 1-.784.625c-.333.178-.765.268-1.295.268zm.375-1.448c.488 0 .901-.13 1.238-.387.341-.261.599-.623.773-1.085.178-.462.267-1 .267-1.614 0-.606-.087-1.136-.261-1.59-.175-.455-.43-.81-.767-1.063-.337-.254-.754-.38-1.25-.38-.512 0-.938.132-1.279.397-.341.265-.598.627-.772 1.085a4.414 4.414 0 0 0-.256 1.551c0 .584.087 1.108.261 1.574.174.466.432.835.773 1.108.345.27.769.404 1.273.404zm9.64 1.448c-.704 0-1.333-.18-1.886-.54-.549-.363-.981-.88-1.296-1.55-.31-.675-.465-1.483-.465-2.427 0-.943.157-1.75.471-2.42.318-.67.754-1.184 1.307-1.54a3.399 3.399 0 0 1 1.881-.534c.541 0 .977.091 1.306.273.334.178.591.386.773.625.186.239.33.449.432.63h.102V17.24h1.699v11.636h-1.659v-1.358h-.142c-.102.186-.25.398-.443.636-.19.239-.451.447-.784.625-.334.178-.765.268-1.296.268zm.375-1.448c.489 0 .902-.13 1.239-.387.341-.261.598-.623.773-1.085.178-.462.267-1 .267-1.614 0-.606-.087-1.136-.262-1.59-.174-.455-.43-.81-.767-1.063-.337-.254-.754-.38-1.25-.38-.511 0-.937.132-1.278.397-.341.265-.599.627-.773 1.085-.17.459-.256.976-.256 1.551 0 .584.088 1.108.262 1.574.174.466.432.835.773 1.108.344.27.768.404 1.272.404zm20.409-6.574h-1.772a2.718 2.718 0 0 0-1.063-1.733 2.94 2.94 0 0 0-.903-.455 3.532 3.532 0 0 0-1.051-.153 3.29 3.29 0 0 0-1.802.506c-.526.337-.943.83-1.25 1.483-.303.651-.454 1.446-.454 2.386 0 .947.151 1.746.454 2.398.307.651.726 1.144 1.256 1.477.53.333 1.127.5 1.79.5.367 0 .716-.05 1.045-.148.334-.102.635-.252.904-.449s.496-.437.682-.721c.189-.288.32-.618.392-.989l1.772.006a4.724 4.724 0 0 1-.551 1.58c-.269.477-.615.89-1.04 1.238-.42.345-.901.612-1.443.801a5.33 5.33 0 0 1-1.772.284c-1.008 0-1.906-.238-2.694-.716-.788-.48-1.409-1.168-1.863-2.062-.451-.894-.676-1.96-.676-3.2 0-1.242.227-2.308.681-3.198.455-.894 1.076-1.58 1.864-2.057.788-.48 1.684-.721 2.688-.721.617 0 1.193.089 1.727.267a4.557 4.557 0 0 1 1.449.772c.428.337.782.75 1.062 1.239.28.485.47 1.04.568 1.665zm3.118-3.784 3.239 9.477h.131l3.238-9.477h1.898l-4.188 11.636h-2.028l-4.187-11.636h1.897z" fill="#fff"/>
    </g>
    <defs>
        <filter id="qed5pdgscb" x="27" y="13.875" width="12" height="16" filterUnits="userSpaceOnUse" color-interpolation-filters="sRGB">
            <feFlood flood-opacity="0" result="BackgroundImageFix"/>
            <feColorMatrix in="SourceAlpha" values="0 0 0 0 0 0 0 0 0 0 0 0 0 0 0 0 0 0 127 0" result="hardAlpha"/>
            <feOffset dx="1" dy="1"/>
            <feGaussianBlur stdDeviation="1"/>
            <feComposite in2="hardAlpha" operator="out"/>
            <feColorMatrix values="0 0 0 0 0 0 0 0 0 0 0 0 0 0 0 0 0 0 0.25 0"/>
            <feBlend in2="BackgroundImageFix" result="effect1_dropShadow_206_1052"/>
            <feBlend in="SourceGraphic" in2="effect1_dropShadow_206_1052" result="shape"/>
        </filter>
        <filter id="cfjcq70g2c" x="21" y="20.875" width="24" height="13" filterUnits="userSpaceOnUse" color-interpolation-filters="sRGB">
            <feFlood flood-opacity="0" result="BackgroundImageFix"/>
            <feColorMatrix in="SourceAlpha" values="0 0 0 0 0 0 0 0 0 0 0 0 0 0 0 0 0 0 127 0" result="hardAlpha"/>
            <feOffset dx="1" dy="1"/>
            <feGaussianBlur stdDeviation="1"/>
            <feComposite in2="hardAlpha" operator="out"/>
            <feColorMatrix values="0 0 0 0 0 0 0 0 0 0 0 0 0 0 0 0 0 0 0.25 0"/>
            <feBlend in2="BackgroundImageFix" result="effect1_dropShadow_206_1052"/>
            <feBlend in="SourceGraphic" in2="effect1_dropShadow_206_1052" result="shape"/>
        </filter>
        <filter id="66o0mvb4zd" x="55.317" y="16.079" width="107.241" height="15.972" filterUnits="userSpaceOnUse" color-interpolation-filters="sRGB">
            <feFlood flood-opacity="0" result="BackgroundImageFix"/>
            <feColorMatrix in="SourceAlpha" values="0 0 0 0 0 0 0 0 0 0 0 0 0 0 0 0 0 0 127 0" result="hardAlpha"/>
            <feOffset dx="1" dy="1"/>
            <feGaussianBlur stdDeviation="1"/>
            <feComposite in2="hardAlpha" operator="out"/>
            <feColorMatrix values="0 0 0 0 0 0 0 0 0 0 0 0 0 0 0 0 0 0 0.25 0"/>
            <feBlend in2="BackgroundImageFix" result="effect1_dropShadow_206_1052"/>
            <feBlend in="SourceGraphic" in2="effect1_dropShadow_206_1052" result="shape"/>
        </filter>
        <clipPath id="d3gsuqrema">
            <path fill="#fff" transform="translate(20 10.875)" d="M0 0h24v24H0z"/>
        </clipPath>
    </defs>
</svg>
